STARTFONT 2.1
COMMENT
COMMENT Converted from OpenType font "FreeUniversal-Bold.ttf" by "otf2bdf 3.0".
COMMENT
FONT -FreeType-FreeUniversal-Bold-R-Normal--28-200-100-100-P-139-ISO10646-1
SIZE 20 100 100
FONTBOUNDINGBOX 41 37 -2 -7
STARTPROPERTIES 19
FOUNDRY "FreeType"
FAMILY_NAME "FreeUniversal"
WEIGHT_NAME "Bold"
SLANT "R"
SETWIDTH_NAME "Normal"
ADD_STYLE_NAME ""
PIXEL_SIZE 28
POINT_SIZE 200
RESOLUTION_X 100
RESOLUTION_Y 100
SPACING "P"
AVERAGE_WIDTH 139
CHARSET_REGISTRY "ISO10646"
CHARSET_ENCODING "1"
FONT_ASCENT 29
FONT_DESCENT 7
COPYRIGHT "FreeUniveral (c) Stephen Wilson 2009    Original Font Sil-Sophia  Copyright (c) SIL International, 1994-2008."
_OTF_FONTFILE "FreeUniversal-Bold.ttf"
_OTF_PSNAME "FreeUniversal-Bold"
ENDPROPERTIES
CHARS 243
STARTCHAR 0020
ENCODING 32
SWIDTH 288 0
DWIDTH 8 0
BBX 0 0 0 0
BITMAP
ENDCHAR
STARTCHAR 0021
ENCODING 33
SWIDTH 396 0
DWIDTH 11 0
BBX 5 20 3 0
BITMAP
F8
F0
70
70
70
70
70
70
70
70
70
70
70
70
70
00
00
70
70
70
ENDCHAR
STARTCHAR 0022
ENCODING 34
SWIDTH 540 0
DWIDTH 15 0
BBX 11 8 2 12
BITMAP
F3E0
F1C0
F1C0
F1C0
F1C0
F1C0
71C0
61C0
ENDCHAR
STARTCHAR 0023
ENCODING 35
SWIDTH 720 0
DWIDTH 20 0
BBX 17 20 2 0
BITMAP
038E00
038E00
030E00
070C00
071C00
3FFF80
3FFF00
0E3800
0E3800
0C3800
1C7000
1C7000
FFFE00
FFFC00
38E000
38E000
70E000
71C000
71C000
61C000
ENDCHAR
STARTCHAR 0024
ENCODING 36
SWIDTH 576 0
DWIDTH 16 0
BBX 14 25 1 -3
BITMAP
0300
0380
1FE0
3FF0
7FF8
7B78
F33C
F300
FB00
7F00
7F80
3FE0
0FF8
03FC
037C
033C
F31C
F33C
FB7C
7FF8
3FF0
1FE0
0300
0300
0300
ENDCHAR
STARTCHAR 0025
ENCODING 37
SWIDTH 1008 0
DWIDTH 28 0
BBX 26 21 1 0
BITMAP
00003000
3F807000
7FC0E000
70E0E000
E0E1C000
E0E1C000
E0E38000
E0E30000
E0E70000
71CE0000
3FCE7E00
1F1CFF00
001CE380
0039C1C0
0031C1C0
0071C1C0
0061C1C0
00E1C1C0
01C1E380
01C0FF00
03807E00
ENDCHAR
STARTCHAR 0026
ENCODING 38
SWIDTH 792 0
DWIDTH 22 0
BBX 19 21 2 0
BITMAP
030000
1FE000
3FF000
7CF800
787800
787000
78F000
3DF000
1FE000
0F8000
3F8380
7FC380
FBE780
F1F780
F0FF80
E07F00
F03F00
F01F00
FEFF80
7FFFC0
1FF3E0
ENDCHAR
STARTCHAR 0027
ENCODING 39
SWIDTH 396 0
DWIDTH 11 0
BBX 4 8 4 12
BITMAP
F0
F0
F0
F0
E0
E0
E0
E0
ENDCHAR
STARTCHAR 0028
ENCODING 40
SWIDTH 396 0
DWIDTH 11 0
BBX 5 25 3 -4
BITMAP
38
38
78
70
70
F0
F0
E0
E0
E0
E0
E0
E0
E0
E0
E0
E0
E0
F0
F0
70
70
78
38
38
ENDCHAR
STARTCHAR 0029
ENCODING 41
SWIDTH 396 0
DWIDTH 11 0
BBX 5 25 3 -4
BITMAP
E0
E0
E0
70
70
70
78
78
38
38
38
38
38
38
38
38
38
78
78
70
70
70
F0
E0
E0
ENDCHAR
STARTCHAR 002A
ENCODING 42
SWIDTH 648 0
DWIDTH 18 0
BBX 12 12 3 9
BITMAP
0900
39C0
39C0
1F80
0F00
FFF0
FFF0
0F00
1F80
39C0
1980
0900
ENDCHAR
STARTCHAR 002B
ENCODING 43
SWIDTH 1008 0
DWIDTH 28 0
BBX 16 17 6 0
BITMAP
0180
0180
0180
0180
0180
0180
0180
0180
FFFF
0180
0180
0180
0180
0180
0180
0180
0180
ENDCHAR
STARTCHAR 002C
ENCODING 44
SWIDTH 324 0
DWIDTH 9 0
BBX 6 7 1 -4
BITMAP
3C
38
38
70
70
70
E0
ENDCHAR
STARTCHAR 002D
ENCODING 45
SWIDTH 324 0
DWIDTH 9 0
BBX 7 4 1 5
BITMAP
FE
FE
FE
FE
ENDCHAR
STARTCHAR 002E
ENCODING 46
SWIDTH 288 0
DWIDTH 8 0
BBX 3 4 3 0
BITMAP
E0
E0
E0
E0
ENDCHAR
STARTCHAR 002F
ENCODING 47
SWIDTH 432 0
DWIDTH 12 0
BBX 9 22 2 -1
BITMAP
0380
0300
0700
0700
0600
0E00
0E00
0E00
1C00
1C00
1C00
1800
3800
3800
3000
7000
7000
7000
E000
E000
E000
C000
ENDCHAR
STARTCHAR 0030
ENCODING 48
SWIDTH 576 0
DWIDTH 16 0
BBX 14 21 1 0
BITMAP
0300
1FE0
3FF0
7CF8
7878
7038
F03C
F03C
F03C
F03C
F03C
F03C
F03C
F03C
F03C
F03C
7878
7878
3FF0
3FF0
0FE0
ENDCHAR
STARTCHAR 0031
ENCODING 49
SWIDTH 576 0
DWIDTH 16 0
BBX 8 20 3 0
BITMAP
0F
1F
7F
FF
F7
C7
07
07
07
07
07
07
07
07
07
07
07
07
07
07
ENDCHAR
STARTCHAR 0032
ENCODING 50
SWIDTH 576 0
DWIDTH 16 0
BBX 14 21 1 0
BITMAP
0100
1FF0
3FF8
7FFC
783C
783C
003C
003C
007C
0078
00F8
01F0
03E0
07C0
1F80
3E00
7C00
F800
FFFC
FFFC
FFFC
ENDCHAR
STARTCHAR 0033
ENCODING 51
SWIDTH 576 0
DWIDTH 16 0
BBX 14 21 1 0
BITMAP
0300
1FE0
3FF0
7FF8
F878
F078
0078
0078
00F8
07E0
07C0
07F0
00F8
0078
003C
F03C
F03C
7878
7FF8
3FF0
1FE0
ENDCHAR
STARTCHAR 0034
ENCODING 52
SWIDTH 576 0
DWIDTH 16 0
BBX 14 20 1 0
BITMAP
01F0
03F0
07F0
07F0
0FF0
0EF0
1CF0
3CF0
38F0
78F0
F0F0
F0F0
FFFC
FFFC
FFFC
FFFC
00F0
00F0
00F0
00F0
ENDCHAR
STARTCHAR 0035
ENCODING 53
SWIDTH 576 0
DWIDTH 16 0
BBX 14 20 1 0
BITMAP
7FF8
7FF8
7FF8
7800
7800
7000
7000
77E0
7FF0
FFF8
F87C
F03C
003C
003C
003C
F03C
F078
7FF8
7FF0
1FC0
ENDCHAR
STARTCHAR 0036
ENCODING 54
SWIDTH 576 0
DWIDTH 16 0
BBX 14 21 1 0
BITMAP
0380
0FE0
1FF0
3EF8
7C78
783C
7000
F000
F3E0
F7F0
FFF8
FC7C
F83C
F83C
F83C
F83C
783C
7878
7FF8
3FF0
1FE0
ENDCHAR
STARTCHAR 0037
ENCODING 55
SWIDTH 576 0
DWIDTH 16 0
BBX 14 20 1 0
BITMAP
FFFC
FFFC
FFFC
003C
0078
0078
00F8
00F0
00F0
01E0
01E0
03E0
03C0
07C0
0780
0F80
0F00
1F00
1F00
1E00
ENDCHAR
STARTCHAR 0038
ENCODING 56
SWIDTH 576 0
DWIDTH 16 0
BBX 14 21 1 0
BITMAP
0300
3FF0
7FF8
7FF8
F87C
F83C
F83C
7878
7CF8
1FE0
1FE0
3FF0
7878
F03C
F03C
F03C
F03C
F87C
7FFC
7FF8
1FE0
ENDCHAR
STARTCHAR 0039
ENCODING 57
SWIDTH 576 0
DWIDTH 16 0
BBX 14 21 1 0
BITMAP
0300
1FE0
3FF0
7FF8
7878
F07C
F03C
F03C
F07C
F07C
78FC
7FFC
3FBC
0E3C
003C
0038
F078
78F8
7FF0
3FE0
1FC0
ENDCHAR
STARTCHAR 003A
ENCODING 58
SWIDTH 324 0
DWIDTH 9 0
BBX 3 14 4 0
BITMAP
E0
E0
E0
E0
00
00
00
00
00
00
E0
E0
E0
E0
ENDCHAR
STARTCHAR 003B
ENCODING 59
SWIDTH 324 0
DWIDTH 9 0
BBX 5 17 2 -3
BITMAP
78
78
78
78
00
00
00
00
00
00
78
78
70
70
E0
E0
C0
ENDCHAR
STARTCHAR 003C
ENCODING 60
SWIDTH 1008 0
DWIDTH 28 0
BBX 16 14 6 2
BITMAP
0007
001E
00F0
07C0
1E00
F000
C000
F000
3C00
0780
01F0
003E
0007
0001
ENDCHAR
STARTCHAR 003D
ENCODING 61
SWIDTH 1008 0
DWIDTH 28 0
BBX 16 7 6 5
BITMAP
FFFF
FFFF
0000
0000
0000
FFFF
FFFF
ENDCHAR
STARTCHAR 003E
ENCODING 62
SWIDTH 1008 0
DWIDTH 28 0
BBX 16 14 6 2
BITMAP
E000
7800
0F00
03E0
0078
000F
0003
000F
003C
01E0
0F80
7C00
E000
8000
ENDCHAR
STARTCHAR 003F
ENCODING 63
SWIDTH 540 0
DWIDTH 15 0
BBX 13 21 1 0
BITMAP
0600
3FC0
7FE0
F1F0
E0F0
6078
00F0
00F0
00E0
01E0
0780
0700
0E00
0E00
0E00
0E00
0000
0000
0E00
0E00
0E00
ENDCHAR
STARTCHAR 0040
ENCODING 64
SWIDTH 1044 0
DWIDTH 29 0
BBX 27 27 1 -6
BITMAP
00070000
00FFF000
03FFFC00
07FFFE00
0FC03F00
1F000F80
3E0007C0
3C3EF3C0
787FF3C0
78FFF1E0
79F1F1E0
F1E0F1E0
F1E0F1E0
F1E0F1E0
F1E0F1E0
F1E0F1E0
F1E0F1C0
78F1FBC0
78FFFF80
7C7F3F00
3C0C1E00
1E000000
1F800000
0FF0F000
03FFF000
01FFF000
001FF000
ENDCHAR
STARTCHAR 0041
ENCODING 65
SWIDTH 720 0
DWIDTH 20 0
BBX 19 20 0 0
BITMAP
00F000
01F800
01F800
03F800
03FC00
03FC00
079E00
079E00
071E00
0F0F00
0F0F00
1E0F00
1FFF80
1FFF80
3FFFC0
3FFFC0
3C03C0
7801E0
7801E0
F801E0
ENDCHAR
STARTCHAR 0042
ENCODING 66
SWIDTH 684 0
DWIDTH 19 0
BBX 15 20 2 0
BITMAP
FFF0
FFF8
FFFC
F07C
F03C
F03C
F03C
F07C
FFF0
FFC0
FFF8
F03C
F01E
F01E
F01E
F01E
F07E
FFFC
FFF8
FFE0
ENDCHAR
STARTCHAR 0043
ENCODING 67
SWIDTH 720 0
DWIDTH 20 0
BBX 17 21 2 0
BITMAP
018000
0FF800
1FFE00
3FFE00
7C1F00
F80F00
F00F80
F00000
F00000
F00000
F00000
F00000
F00000
F00000
F00F80
F00F80
780F00
7C1F00
3FFE00
1FFC00
0FF000
ENDCHAR
STARTCHAR 0044
ENCODING 68
SWIDTH 720 0
DWIDTH 20 0
BBX 17 20 2 0
BITMAP
FFE000
FFF800
FFFC00
F07E00
F01F00
F00F00
F00F00
F00F80
F00780
F00780
F00780
F00780
F00F80
F00F00
F01F00
F01E00
F0FE00
FFFC00
FFF000
FFC000
ENDCHAR
STARTCHAR 0045
ENCODING 69
SWIDTH 648 0
DWIDTH 18 0
BBX 14 20 2 0
BITMAP
FFF8
FFF8
FFF8
F000
F000
F000
F000
F000
FFF8
FFF8
FFF8
F000
F000
F000
F000
F000
F000
FFFC
FFFC
FFFC
ENDCHAR
STARTCHAR 0046
ENCODING 70
SWIDTH 576 0
DWIDTH 16 0
BBX 13 20 2 0
BITMAP
FFF8
FFF8
FFF8
F000
F000
F000
F000
F000
FFF0
FFF0
FFF0
F000
F000
F000
F000
F000
F000
F000
F000
F000
ENDCHAR
STARTCHAR 0047
ENCODING 71
SWIDTH 792 0
DWIDTH 22 0
BBX 18 21 2 0
BITMAP
00E000
07FE00
1FFF00
3FFF80
7E07C0
7807C0
F803C0
F00000
F00000
F00000
F03FC0
F03FC0
F03FC0
F03FC0
F003C0
F803C0
7C03C0
7E03C0
3FFFC0
1FFFC0
07FF00
ENDCHAR
STARTCHAR 0048
ENCODING 72
SWIDTH 720 0
DWIDTH 20 0
BBX 16 20 2 0
BITMAP
F00F
F00F
F00F
F00F
F00F
F00F
F00F
F00F
FFFF
FFFF
FFFF
F00F
F00F
F00F
F00F
F00F
F00F
F00F
F00F
F00F
ENDCHAR
STARTCHAR 0049
ENCODING 73
SWIDTH 288 0
DWIDTH 8 0
BBX 4 20 2 0
BITMAP
F0
F0
F0
F0
F0
F0
F0
F0
F0
F0
F0
F0
F0
F0
F0
F0
F0
F0
F0
F0
ENDCHAR
STARTCHAR 004A
ENCODING 74
SWIDTH 648 0
DWIDTH 18 0
BBX 14 20 2 0
BITMAP
007C
007C
007C
007C
007C
007C
007C
007C
007C
007C
007C
007C
007C
007C
F07C
F078
F878
FFF0
7FF0
3FC0
ENDCHAR
STARTCHAR 004B
ENCODING 75
SWIDTH 684 0
DWIDTH 19 0
BBX 16 20 2 0
BITMAP
F03E
F03C
F07C
F0F8
F1F0
F3E0
F3C0
F7C0
FF80
FF80
F7C0
F7C0
F3E0
F1F0
F1F8
F0F8
F07C
F03E
F03E
F01F
ENDCHAR
STARTCHAR 004C
ENCODING 76
SWIDTH 576 0
DWIDTH 16 0
BBX 13 20 2 0
BITMAP
F000
F000
F000
F000
F000
F000
F000
F000
F000
F000
F000
F000
F000
F000
F000
F000
F000
FFF8
FFF8
FFF8
ENDCHAR
STARTCHAR 004D
ENCODING 77
SWIDTH 936 0
DWIDTH 26 0
BBX 22 20 2 0
BITMAP
FE01FC
FE01FC
FE01FC
FF03FC
FF03FC
F703BC
F787BC
F787BC
F787BC
F3CF3C
F3CF3C
F3CF3C
F1CE3C
F1FE3C
F1FE3C
F0FC3C
F0FC3C
F0FC3C
F07C3C
F0783C
ENDCHAR
STARTCHAR 004E
ENCODING 78
SWIDTH 792 0
DWIDTH 22 0
BBX 18 20 2 0
BITMAP
FC03C0
FE03C0
FE03C0
FF03C0
FF03C0
F783C0
F783C0
F3C3C0
F3C3C0
F1E3C0
F1E3C0
F0E3C0
F0F3C0
F073C0
F07BC0
F03BC0
F03FC0
F03FC0
F01FC0
F01FC0
ENDCHAR
STARTCHAR 004F
ENCODING 79
SWIDTH 792 0
DWIDTH 22 0
BBX 19 21 2 0
BITMAP
00E000
0FFC00
1FFE00
3FFF00
7C0F80
7807C0
F803C0
F003C0
F003E0
F003E0
F003E0
F003E0
F003E0
F003C0
F003C0
F803C0
7807C0
7C0F80
3FFF00
1FFE00
07FC00
ENDCHAR
STARTCHAR 0050
ENCODING 80
SWIDTH 648 0
DWIDTH 18 0
BBX 15 20 2 0
BITMAP
FFE0
FFF8
FFFC
F07C
F03E
F01E
F01E
F03E
F07C
FFFC
FFF8
FFE0
F000
F000
F000
F000
F000
F000
F000
F000
ENDCHAR
STARTCHAR 0051
ENCODING 81
SWIDTH 828 0
DWIDTH 23 0
BBX 20 21 2 0
BITMAP
00C000
0FFC00
1FFE00
3FFF00
7C0F80
7807C0
F803C0
F003C0
F003E0
F003E0
F003E0
F003E0
F003E0
F003C0
F003C0
F803C0
780780
7C0F00
3FFFF0
1FFFF0
07FFF0
ENDCHAR
STARTCHAR 0052
ENCODING 82
SWIDTH 684 0
DWIDTH 19 0
BBX 16 20 2 0
BITMAP
FFF0
FFFC
FFFE
F03E
F01F
F01F
F01E
F03E
F0FC
FFF0
FFF8
FFFC
F03E
F01E
F01E
F01E
F01E
F01E
F01F
F00F
ENDCHAR
STARTCHAR 0053
ENCODING 83
SWIDTH 684 0
DWIDTH 19 0
BBX 16 21 2 0
BITMAP
0180
1FF0
3FFC
7FFC
783E
F01E
F000
F800
FC00
7FC0
3FF8
0FFC
01FE
003E
001F
F00F
F01E
F83E
7FFC
3FF8
1FF0
ENDCHAR
STARTCHAR 0054
ENCODING 84
SWIDTH 648 0
DWIDTH 18 0
BBX 16 20 1 0
BITMAP
FFFF
FFFF
FFFF
03C0
03C0
03C0
03C0
03C0
03C0
03C0
03C0
03C0
03C0
03C0
03C0
03C0
03C0
03C0
03C0
03C0
ENDCHAR
STARTCHAR 0055
ENCODING 85
SWIDTH 756 0
DWIDTH 21 0
BBX 17 20 2 0
BITMAP
F00780
F00780
F00780
F00780
F00780
F00780
F00780
F00780
F00780
F00780
F00780
F00780
F00780
F00780
F80780
780F80
7C1F00
3FFE00
1FFC00
0FF800
ENDCHAR
STARTCHAR 0056
ENCODING 86
SWIDTH 756 0
DWIDTH 21 0
BBX 19 20 1 0
BITMAP
F001E0
F003E0
F803C0
7803C0
7807C0
7C0780
3C0F80
3E0F00
3E0F00
1E1F00
1F1E00
0F1E00
0F3E00
0FBC00
07BC00
07F800
07F800
03F800
03F000
01F000
ENDCHAR
STARTCHAR 0057
ENCODING 87
SWIDTH 1008 0
DWIDTH 28 0
BBX 28 20 0 0
BITMAP
F80F01F0
781F81E0
781F81E0
7C1F83E0
7C1F83E0
3C3FC3C0
3C3FC3C0
3C39C3C0
3E39C7C0
1E79E780
1E79E780
1E70E780
1EF0F780
0FF0FF00
0FF0FF00
0FE07F00
0FE07F00
07E07E00
07C03E00
07C03E00
ENDCHAR
STARTCHAR 0058
ENCODING 88
SWIDTH 684 0
DWIDTH 19 0
BBX 18 20 1 0
BITMAP
F80780
7C0F00
3C0F00
3E1E00
1F3C00
0F3C00
0FF800
07F000
03F000
03E000
03F000
07F000
0FF800
0F7C00
1E3C00
3C3E00
3C1F00
780F00
F00F80
F007C0
ENDCHAR
STARTCHAR 0059
ENCODING 89
SWIDTH 648 0
DWIDTH 18 0
BBX 17 20 1 0
BITMAP
F00F80
F80F00
781F00
7C1E00
3C3E00
3E3C00
1E7800
1F7800
0FF000
07F000
07E000
03E000
03C000
03C000
03C000
03C000
03C000
03C000
03C000
03C000
ENDCHAR
STARTCHAR 005A
ENCODING 90
SWIDTH 648 0
DWIDTH 18 0
BBX 15 20 1 0
BITMAP
7FFE
7FFE
7FFE
003E
007C
007C
00F8
01F0
03E0
03E0
07C0
0F80
1F00
1F00
3E00
7C00
F800
FFFE
FFFE
FFFE
ENDCHAR
STARTCHAR 005B
ENCODING 91
SWIDTH 396 0
DWIDTH 11 0
BBX 7 26 2 -6
BITMAP
FE
FE
F0
F0
F0
F0
F0
F0
F0
F0
F0
F0
F0
F0
F0
F0
F0
F0
F0
F0
F0
F0
F0
FE
FE
FE
ENDCHAR
STARTCHAR 005C
ENCODING 92
SWIDTH 432 0
DWIDTH 12 0
BBX 9 22 1 -1
BITMAP
E000
6000
7000
7000
3000
3800
3800
3800
1800
1C00
1C00
0C00
0E00
0E00
0600
0700
0700
0700
0300
0380
0380
0180
ENDCHAR
STARTCHAR 005D
ENCODING 93
SWIDTH 396 0
DWIDTH 11 0
BBX 7 26 2 -6
BITMAP
FE
FE
1E
1E
1E
1E
1E
1E
1E
1E
1E
1E
1E
1E
1E
1E
1E
1E
1E
1E
1E
1E
1E
FE
FE
FE
ENDCHAR
STARTCHAR 005E
ENCODING 94
SWIDTH 1008 0
DWIDTH 28 0
BBX 14 17 7 0
BITMAP
0300
0700
0780
0480
0CC0
0CC0
0840
1860
1020
3030
3030
2010
6018
6018
4008
C00C
C00C
ENDCHAR
STARTCHAR 005F
ENCODING 95
SWIDTH 504 0
DWIDTH 14 0
BBX 14 2 0 -4
BITMAP
FFFC
FFFC
ENDCHAR
STARTCHAR 0060
ENCODING 96
SWIDTH 252 0
DWIDTH 7 0
BBX 5 5 0 17
BITMAP
E0
F0
70
38
18
ENDCHAR
STARTCHAR 0061
ENCODING 97
SWIDTH 540 0
DWIDTH 15 0
BBX 13 14 1 0
BITMAP
1FE0
3FF0
7870
7878
0078
1FF8
3FF8
7878
F078
F078
F078
F8F8
7FF8
3F38
ENDCHAR
STARTCHAR 0062
ENCODING 98
SWIDTH 612 0
DWIDTH 17 0
BBX 14 20 2 0
BITMAP
F000
F000
F000
F000
F000
F000
FFE0
FFF0
F8F8
F078
F03C
F03C
F03C
F03C
F03C
F03C
F078
F8F8
FFF0
F7E0
ENDCHAR
STARTCHAR 0063
ENCODING 99
SWIDTH 540 0
DWIDTH 15 0
BBX 12 14 1 0
BITMAP
1FC0
3FE0
78F0
70F0
70F0
F000
F000
F000
F000
F0F0
70F0
78F0
3FE0
1FC0
ENDCHAR
STARTCHAR 0064
ENCODING 100
SWIDTH 612 0
DWIDTH 17 0
BBX 14 20 1 0
BITMAP
001C
001C
001C
001C
001C
001C
1FDC
3FFC
7C7C
783C
703C
F03C
F01C
F01C
F03C
703C
783C
7C7C
3FDC
1F9C
ENDCHAR
STARTCHAR 0065
ENCODING 101
SWIDTH 540 0
DWIDTH 15 0
BBX 13 14 1 0
BITMAP
1FC0
3FF0
78F0
7078
7078
FFF8
FFF8
FFF8
F000
7000
7878
78F0
3FF0
1FE0
ENDCHAR
STARTCHAR 0066
ENCODING 102
SWIDTH 360 0
DWIDTH 10 0
BBX 10 21 0 0
BITMAP
0300
0FC0
1FC0
1E00
1E00
1E00
1E00
FFC0
FFC0
1E00
1E00
1E00
1E00
1E00
1E00
1E00
1E00
1E00
1E00
1E00
1E00
ENDCHAR
STARTCHAR 0067
ENCODING 103
SWIDTH 612 0
DWIDTH 17 0
BBX 14 20 1 -6
BITMAP
1FDC
3FFC
7C7C
783C
703C
F03C
F01C
F01C
F03C
703C
787C
7FFC
3FDC
0F1C
003C
783C
783C
3FF8
1FF0
0100
ENDCHAR
STARTCHAR 0068
ENCODING 104
SWIDTH 612 0
DWIDTH 17 0
BBX 13 20 2 0
BITMAP
F000
F000
F000
F000
F000
F000
FFE0
FFF0
F8F8
F078
F078
F078
F078
F078
F078
F078
F078
F078
F078
F078
ENDCHAR
STARTCHAR 0069
ENCODING 105
SWIDTH 252 0
DWIDTH 7 0
BBX 4 20 2 0
BITMAP
F0
F0
F0
00
00
00
F0
F0
F0
F0
F0
F0
F0
F0
F0
F0
F0
F0
F0
F0
ENDCHAR
STARTCHAR 006A
ENCODING 106
SWIDTH 360 0
DWIDTH 10 0
BBX 5 26 3 -6
BITMAP
78
78
78
00
00
00
78
78
78
78
78
78
78
78
78
78
78
78
78
78
78
78
78
F8
F8
F0
ENDCHAR
STARTCHAR 006B
ENCODING 107
SWIDTH 540 0
DWIDTH 15 0
BBX 13 20 2 0
BITMAP
F000
F000
F000
F000
F000
F000
F0F0
F1E0
F3C0
F7C0
FF80
FF00
FF00
FF00
F780
F7C0
F3E0
F1E0
F1F0
F0F8
ENDCHAR
STARTCHAR 006C
ENCODING 108
SWIDTH 252 0
DWIDTH 7 0
BBX 4 20 2 0
BITMAP
F0
F0
F0
F0
F0
F0
F0
F0
F0
F0
F0
F0
F0
F0
F0
F0
F0
F0
F0
F0
ENDCHAR
STARTCHAR 006D
ENCODING 109
SWIDTH 936 0
DWIDTH 26 0
BBX 22 14 2 0
BITMAP
F7E3F0
FFF7F8
F8FC78
F0783C
F0783C
F0783C
F0783C
F0783C
F0783C
F0783C
F0783C
F0783C
F0783C
F0783C
ENDCHAR
STARTCHAR 006E
ENCODING 110
SWIDTH 612 0
DWIDTH 17 0
BBX 13 14 2 0
BITMAP
F7E0
FFF0
F8F8
F078
F078
F078
F078
F078
F078
F078
F078
F078
F078
F078
ENDCHAR
STARTCHAR 006F
ENCODING 111
SWIDTH 612 0
DWIDTH 17 0
BBX 15 14 1 0
BITMAP
0FE0
3FF0
3C78
783C
701C
F01E
F01E
F01E
F01E
701C
783C
3C78
3FF0
0FE0
ENDCHAR
STARTCHAR 0070
ENCODING 112
SWIDTH 612 0
DWIDTH 17 0
BBX 14 20 2 -6
BITMAP
F7E0
FFF0
F8F8
F878
F03C
F03C
F03C
F03C
F03C
F03C
F078
F8F8
FFF0
FFE0
F000
F000
F000
F000
F000
F000
ENDCHAR
STARTCHAR 0071
ENCODING 113
SWIDTH 612 0
DWIDTH 17 0
BBX 14 20 1 -6
BITMAP
1F9C
3FDC
7C7C
783C
703C
F03C
F01C
F01C
F03C
703C
783C
7C7C
3FFC
1FDC
001C
001C
001C
001C
001C
001C
ENDCHAR
STARTCHAR 0072
ENCODING 114
SWIDTH 396 0
DWIDTH 11 0
BBX 8 14 2 0
BITMAP
F7
FF
FF
F8
F0
F0
F0
F0
F0
F0
F0
F0
F0
F0
ENDCHAR
STARTCHAR 0073
ENCODING 115
SWIDTH 540 0
DWIDTH 15 0
BBX 12 14 1 0
BITMAP
1FC0
7FE0
78F0
70F0
7800
7F00
3FE0
0FF0
01F0
00F0
F070
78F0
7FE0
3FC0
ENDCHAR
STARTCHAR 0074
ENCODING 116
SWIDTH 432 0
DWIDTH 12 0
BBX 10 18 1 0
BITMAP
0400
1C00
1C00
1C00
FFC0
FFC0
1C00
1C00
1C00
1C00
1C00
1C00
1C00
1C00
1E00
1F00
1FC0
0FC0
ENDCHAR
STARTCHAR 0075
ENCODING 117
SWIDTH 612 0
DWIDTH 17 0
BBX 13 14 2 0
BITMAP
F078
F078
F078
F078
F078
F078
F078
F078
F078
F078
F078
F0F8
7FF8
7F78
ENDCHAR
STARTCHAR 0076
ENCODING 118
SWIDTH 540 0
DWIDTH 15 0
BBX 15 14 0 0
BITMAP
F81E
783C
783C
3C3C
3C78
3C78
1E78
1EF0
1EF0
0FE0
0FE0
07E0
07C0
07C0
ENDCHAR
STARTCHAR 0077
ENCODING 119
SWIDTH 864 0
DWIDTH 24 0
BBX 24 14 0 0
BITMAP
F03C0F
787E1E
787E1E
787E1E
38FF3C
3CFF3C
3CE73C
1DE7B8
1FE7F8
1FC3F8
1FC3F0
0FC3F0
0FC3F0
0F81F0
ENDCHAR
STARTCHAR 0078
ENCODING 120
SWIDTH 540 0
DWIDTH 15 0
BBX 14 14 1 0
BITMAP
F878
78F8
3CF0
3FE0
1FE0
0FC0
0F80
0FC0
1FC0
3DE0
3DF0
78F0
F078
F07C
ENDCHAR
STARTCHAR 0079
ENCODING 121
SWIDTH 540 0
DWIDTH 15 0
BBX 15 20 0 -6
BITMAP
F81E
783C
783C
3C3C
3C78
3E78
1E78
1EF0
0FF0
0FF0
0FE0
07E0
07C0
03C0
03C0
0780
0780
0780
0F00
0F00
ENDCHAR
STARTCHAR 007A
ENCODING 122
SWIDTH 504 0
DWIDTH 14 0
BBX 12 14 1 0
BITMAP
FFF0
FFF0
00F0
01E0
03C0
0780
0F80
1F00
3E00
3C00
7800
F000
FFF0
FFF0
ENDCHAR
STARTCHAR 007B
ENCODING 123
SWIDTH 504 0
DWIDTH 14 0
BBX 10 28 2 -7
BITMAP
03C0
0FC0
0F80
0E00
1E00
0E00
0E00
0E00
0E00
0E00
1E00
1C00
FC00
F000
F800
3C00
1E00
1E00
0E00
0E00
0E00
0E00
1E00
0E00
0F00
0FC0
07C0
01C0
ENDCHAR
STARTCHAR 007C
ENCODING 124
SWIDTH 360 0
DWIDTH 10 0
BBX 2 29 4 -7
BITMAP
C0
C0
C0
C0
C0
C0
C0
C0
C0
C0
C0
C0
C0
C0
C0
C0
C0
C0
C0
C0
C0
C0
C0
C0
C0
C0
C0
C0
C0
ENDCHAR
STARTCHAR 007D
ENCODING 125
SWIDTH 504 0
DWIDTH 14 0
BBX 10 28 2 -7
BITMAP
F800
FC00
7C00
1E00
1E00
1E00
1E00
1E00
1E00
1E00
0E00
0F00
07C0
03C0
07C0
0F00
0E00
1E00
1E00
1E00
1E00
1E00
1E00
1E00
1E00
FC00
FC00
E000
ENDCHAR
STARTCHAR 007E
ENCODING 126
SWIDTH 540 0
DWIDTH 15 0
BBX 15 4 0 5
BITMAP
1E0E
7FFC
F3F8
E000
ENDCHAR
STARTCHAR 00A0
ENCODING 160
SWIDTH 288 0
DWIDTH 8 0
BBX 0 0 0 0
BITMAP
ENDCHAR
STARTCHAR 00A1
ENCODING 161
SWIDTH 396 0
DWIDTH 11 0
BBX 5 20 3 -6
BITMAP
70
70
70
00
00
70
70
70
70
70
70
70
70
70
70
70
70
F0
F0
F8
ENDCHAR
STARTCHAR 00A2
ENCODING 162
SWIDTH 576 0
DWIDTH 16 0
BBX 12 21 2 -3
BITMAP
00C0
00C0
0080
1FC0
3FE0
79F0
F3F0
F370
E200
E600
E600
E400
FCF0
FCF0
78F0
7FE0
1FC0
1800
1000
3000
3000
ENDCHAR
STARTCHAR 00A3
ENCODING 163
SWIDTH 576 0
DWIDTH 16 0
BBX 13 21 2 0
BITMAP
0100
1FF0
3FF8
3C78
3838
3800
3800
3800
FF80
FF80
FF80
3800
3800
3800
3800
3800
3800
3800
3800
FFF8
FFF8
ENDCHAR
STARTCHAR 00A4
ENCODING 164
SWIDTH 612 0
DWIDTH 17 0
BBX 15 14 1 5
BITMAP
C006
63CC
3FF8
1830
3018
3008
200C
200C
3008
3018
1830
3FF8
67CC
C006
ENDCHAR
STARTCHAR 00A5
ENCODING 165
SWIDTH 576 0
DWIDTH 16 0
BBX 16 20 0 0
BITMAP
F80F
781E
781E
3C3C
3C3C
FE7F
FE7F
0FF0
0FF0
07E0
07E0
FFFF
03C0
03C0
03C0
03C0
03C0
03C0
03C0
03C0
ENDCHAR
STARTCHAR 00A6
ENCODING 166
SWIDTH 360 0
DWIDTH 10 0
BBX 2 27 4 -6
BITMAP
C0
C0
C0
C0
C0
C0
C0
C0
C0
C0
C0
C0
00
00
00
C0
C0
C0
C0
C0
C0
C0
C0
C0
C0
C0
C0
ENDCHAR
STARTCHAR 00A7
ENCODING 167
SWIDTH 468 0
DWIDTH 13 0
BBX 11 26 1 -5
BITMAP
0600
3FC0
7FC0
78C0
F000
F000
7800
7E00
3F00
3FC0
7FC0
F1E0
E0E0
E0E0
F3C0
7F80
7F00
1FC0
07C0
01E0
00E0
01E0
C1E0
FFC0
FF80
3E00
ENDCHAR
STARTCHAR 00A8
ENCODING 168
SWIDTH 324 0
DWIDTH 9 0
BBX 9 3 0 18
BITMAP
E380
E380
E380
ENDCHAR
STARTCHAR 00A9
ENCODING 169
SWIDTH 864 0
DWIDTH 24 0
BBX 21 21 2 0
BITMAP
006000
07FE00
0F0F00
1C01C0
3020C0
61FC60
63FE30
C70E30
C70E30
C70018
C70018
C70018
C70E10
C70E30
C78E30
63FC70
71F860
3800C0
1C0380
0FDF00
03FC00
ENDCHAR
STARTCHAR 00AA
ENCODING 170
SWIDTH 396 0
DWIDTH 11 0
BBX 9 14 1 6
BITMAP
3E00
7F00
E380
0380
3F80
F380
E380
E380
F780
7F80
0000
0000
FF80
FF80
ENDCHAR
STARTCHAR 00AB
ENCODING 171
SWIDTH 612 0
DWIDTH 17 0
BBX 13 11 2 2
BITMAP
1C38
3C78
7878
78F0
F0F0
F1E0
F1E0
F0F0
78F0
7878
3C78
ENDCHAR
STARTCHAR 00AC
ENCODING 172
SWIDTH 612 0
DWIDTH 17 0
BBX 15 7 1 5
BITMAP
FFFE
FFFE
0002
0002
0002
0002
0002
ENDCHAR
STARTCHAR 00AE
ENCODING 174
SWIDTH 864 0
DWIDTH 24 0
BBX 21 21 2 0
BITMAP
006000
07FE00
0F0F00
1C01C0
3000C0
63FC60
63FE30
C30E30
C30630
C30E18
C3F818
C3FC18
C30E10
C30E30
C30E30
630670
730660
3800C0
1C0380
0FDF00
03FC00
ENDCHAR
STARTCHAR 00AF
ENCODING 175
SWIDTH 324 0
DWIDTH 9 0
BBX 9 2 0 18
BITMAP
FF80
FF80
ENDCHAR
STARTCHAR 00B0
ENCODING 176
SWIDTH 324 0
DWIDTH 9 0
BBX 7 6 1 14
BITMAP
38
44
C6
C6
44
38
ENDCHAR
STARTCHAR 00B1
ENCODING 177
SWIDTH 1008 0
DWIDTH 28 0
BBX 16 17 6 0
BITMAP
0180
0180
0180
0180
0180
FFFF
FFFF
0180
0180
0180
0180
0180
0000
0000
0000
FFFF
FFFF
ENDCHAR
STARTCHAR 00B2
ENCODING 178
SWIDTH 360 0
DWIDTH 10 0
BBX 9 11 1 10
BITMAP
3C00
7F00
E380
0380
0700
0F00
1E00
3C00
7000
FF00
FF00
ENDCHAR
STARTCHAR 00B3
ENCODING 179
SWIDTH 360 0
DWIDTH 10 0
BBX 8 11 1 10
BITMAP
3C
7E
E7
07
0F
1C
1F
07
E7
E7
7E
ENDCHAR
STARTCHAR 00B4
ENCODING 180
SWIDTH 216 0
DWIDTH 6 0
BBX 5 5 2 17
BITMAP
38
70
60
E0
C0
ENDCHAR
STARTCHAR 00B6
ENCODING 182
SWIDTH 576 0
DWIDTH 16 0
BBX 13 24 1 -4
BITMAP
1FF8
3F30
7F30
7F30
FF30
FF30
FF30
7F30
7F30
1F30
0330
0330
0330
0330
0330
0330
0330
0330
0330
0330
0330
0330
0330
0330
ENDCHAR
STARTCHAR 00B7
ENCODING 183
SWIDTH 288 0
DWIDTH 8 0
BBX 4 3 2 8
BITMAP
F0
F0
F0
ENDCHAR
STARTCHAR 00B8
ENCODING 184
SWIDTH 252 0
DWIDTH 7 0
BBX 7 7 1 -7
BITMAP
20
30
3E
0E
06
FE
F8
ENDCHAR
STARTCHAR 00B9
ENCODING 185
SWIDTH 288 0
DWIDTH 8 0
BBX 6 11 1 10
BITMAP
1C
7C
FC
9C
1C
1C
1C
1C
1C
1C
1C
ENDCHAR
STARTCHAR 00BA
ENCODING 186
SWIDTH 432 0
DWIDTH 12 0
BBX 10 14 1 6
BITMAP
1E00
7F00
E380
E1C0
C1C0
C1C0
C1C0
E180
7380
3F00
0000
0000
FFC0
FFC0
ENDCHAR
STARTCHAR 00BB
ENCODING 187
SWIDTH 612 0
DWIDTH 17 0
BBX 14 11 1 2
BITMAP
F0E0
78F0
7870
3C78
3C3C
1E3C
1E3C
3C7C
3C78
7870
78F0
ENDCHAR
STARTCHAR 00BC
ENCODING 188
SWIDTH 792 0
DWIDTH 22 0
BBX 20 21 1 0
BITMAP
1C0380
7C0380
FC0700
9C0700
1C0E00
1C0C00
1C1C00
1C3800
1C3800
1C7000
1C7000
00E1E0
00C1E0
01C3E0
0387E0
0386E0
070CE0
071FF0
0E1FF0
0C00E0
1C00E0
ENDCHAR
STARTCHAR 00BD
ENCODING 189
SWIDTH 792 0
DWIDTH 22 0
BBX 20 21 1 0
BITMAP
180380
780700
F80600
980E00
180C00
181C00
183800
183800
187000
187000
18E3C0
00CFF0
01CE70
038070
038070
0700E0
0701C0
0E0380
0C0F00
1C0FF0
380FF0
ENDCHAR
STARTCHAR 00BE
ENCODING 190
SWIDTH 792 0
DWIDTH 22 0
BBX 20 21 1 0
BITMAP
3C01C0
7E01C0
E70380
070380
0F0700
1C0600
0F0E00
071C00
E71C00
E73800
7E3800
0071E0
0061E0
00E360
01C760
01C660
038C60
038FF0
070FF0
060060
0E0060
ENDCHAR
STARTCHAR 00BF
ENCODING 191
SWIDTH 540 0
DWIDTH 15 0
BBX 13 20 1 -6
BITMAP
0380
0380
0380
0000
0000
0380
0380
0380
0700
1E00
3C00
7800
7000
F000
F020
F078
78F0
7FF0
1FC0
0200
ENDCHAR
STARTCHAR 00C0
ENCODING 192
SWIDTH 720 0
DWIDTH 20 0
BBX 19 28 0 0
BITMAP
038000
038000
01C000
00E000
006000
000000
000000
000000
00F000
01F800
01F800
03F800
03FC00
03FC00
079E00
079E00
071E00
0F0F00
0F0F00
1E0F00
1FFF80
1FFF80
3FFFC0
3FFFC0
3C03C0
7801E0
7801E0
F801E0
ENDCHAR
STARTCHAR 00C1
ENCODING 193
SWIDTH 720 0
DWIDTH 20 0
BBX 19 28 0 0
BITMAP
001C00
003800
003800
007000
006000
000000
000000
000000
00F000
01F800
01F800
03F800
03FC00
03FC00
079E00
079E00
071E00
0F0F00
0F0F00
1E0F00
1FFF80
1FFF80
3FFFC0
3FFFC0
3C03C0
7801E0
7801E0
F801E0
ENDCHAR
STARTCHAR 00C2
ENCODING 194
SWIDTH 720 0
DWIDTH 20 0
BBX 19 28 0 0
BITMAP
00F000
01F800
01F800
039C00
030C00
000000
000000
000000
00F000
01F800
01F800
03F800
03FC00
03FC00
079E00
079E00
071E00
0F0F00
0F0F00
1E0F00
1FFF80
1FFF80
3FFFC0
3FFFC0
3C03C0
7801E0
7801E0
F801E0
ENDCHAR
STARTCHAR 00C3
ENCODING 195
SWIDTH 720 0
DWIDTH 20 0
BBX 19 27 0 0
BITMAP
000400
03FC00
03F800
060000
000000
000000
000000
00F000
01F800
01F800
03F800
03FC00
03FC00
079E00
079E00
071E00
0F0F00
0F0F00
1E0F00
1FFF80
1FFF80
3FFFC0
3FFFC0
3C03C0
7801E0
7801E0
F801E0
ENDCHAR
STARTCHAR 00C4
ENCODING 196
SWIDTH 720 0
DWIDTH 20 0
BBX 19 27 0 0
BITMAP
079C00
079C00
079C00
000000
000000
000000
000000
00F000
01F800
01F800
03F800
03FC00
03FC00
079E00
079E00
071E00
0F0F00
0F0F00
1E0F00
1FFF80
1FFF80
3FFFC0
3FFFC0
3C03C0
7801E0
7801E0
F801E0
ENDCHAR
STARTCHAR 00C5
ENCODING 197
SWIDTH 720 0
DWIDTH 20 0
BBX 19 30 0 0
BITMAP
006000
01F000
019800
010800
011800
01F800
00F000
000000
000000
000000
00F000
01F800
01F800
03F800
03FC00
03FC00
079E00
079E00
071E00
0F0F00
0F0F00
1E0F00
1FFF80
1FFF80
3FFFC0
3FFFC0
3C03C0
7801E0
7801E0
F801E0
ENDCHAR
STARTCHAR 00C6
ENCODING 198
SWIDTH 1008 0
DWIDTH 28 0
BBX 26 20 1 0
BITMAP
003FFF80
007FFF80
007FFF80
00FF0000
00FF0000
01EF0000
01CF0000
03CF0000
078FFF80
078FFF80
0F0FFF80
0F0F0000
1FFF0000
1FFF0000
3FFF0000
3C0F0000
780F0000
780FFFC0
F00FFFC0
F00FFFC0
ENDCHAR
STARTCHAR 00C7
ENCODING 199
SWIDTH 720 0
DWIDTH 20 0
BBX 17 28 2 -7
BITMAP
018000
0FF800
1FFE00
3FFE00
7C1F00
F80F00
F00F80
F00000
F00000
F00000
F00000
F00000
F00000
F00000
F00F80
F00F80
780F00
7C1F00
3FFE00
1FFC00
0FF000
018000
01C000
01F000
003000
003800
03F000
03C000
ENDCHAR
STARTCHAR 00C8
ENCODING 200
SWIDTH 648 0
DWIDTH 18 0
BBX 14 28 2 0
BITMAP
1C00
0E00
0E00
0700
0300
0000
0000
0000
FFF8
FFF8
FFF8
F000
F000
F000
F000
F000
FFF8
FFF8
FFF8
F000
F000
F000
F000
F000
F000
FFFC
FFFC
FFFC
ENDCHAR
STARTCHAR 00C9
ENCODING 201
SWIDTH 648 0
DWIDTH 18 0
BBX 14 28 2 0
BITMAP
01E0
01C0
0380
0300
0600
0000
0000
0000
FFF8
FFF8
FFF8
F000
F000
F000
F000
F000
FFF8
FFF8
FFF8
F000
F000
F000
F000
F000
F000
FFFC
FFFC
FFFC
ENDCHAR
STARTCHAR 00CA
ENCODING 202
SWIDTH 648 0
DWIDTH 18 0
BBX 14 28 2 0
BITMAP
0780
0F80
0DC0
1CC0
1860
0000
0000
0000
FFF8
FFF8
FFF8
F000
F000
F000
F000
F000
FFF8
FFF8
FFF8
F000
F000
F000
F000
F000
F000
FFFC
FFFC
FFFC
ENDCHAR
STARTCHAR 00CB
ENCODING 203
SWIDTH 648 0
DWIDTH 18 0
BBX 14 27 2 0
BITMAP
38E0
38E0
38E0
0000
0000
0000
0000
FFF8
FFF8
FFF8
F000
F000
F000
F000
F000
FFF8
FFF8
FFF8
F000
F000
F000
F000
F000
F000
FFFC
FFFC
FFFC
ENDCHAR
STARTCHAR 00CC
ENCODING 204
SWIDTH 288 0
DWIDTH 8 0
BBX 6 28 0 0
BITMAP
E0
F0
70
38
18
00
00
00
3C
3C
3C
3C
3C
3C
3C
3C
3C
3C
3C
3C
3C
3C
3C
3C
3C
3C
3C
3C
ENDCHAR
STARTCHAR 00CD
ENCODING 205
SWIDTH 252 0
DWIDTH 7 0
BBX 6 28 2 0
BITMAP
3C
38
70
60
E0
00
00
00
F0
F0
F0
F0
F0
F0
F0
F0
F0
F0
F0
F0
F0
F0
F0
F0
F0
F0
F0
F0
ENDCHAR
STARTCHAR 00CE
ENCODING 206
SWIDTH 288 0
DWIDTH 8 0
BBX 8 28 0 0
BITMAP
3C
7E
7E
E7
C3
00
00
00
3C
3C
3C
3C
3C
3C
3C
3C
3C
3C
3C
3C
3C
3C
3C
3C
3C
3C
3C
3C
ENDCHAR
STARTCHAR 00CF
ENCODING 207
SWIDTH 288 0
DWIDTH 8 0
BBX 9 27 0 0
BITMAP
E780
E780
E780
0000
0000
0000
0000
3C00
3C00
3C00
3C00
3C00
3C00
3C00
3C00
3C00
3C00
3C00
3C00
3C00
3C00
3C00
3C00
3C00
3C00
3C00
3C00
ENDCHAR
STARTCHAR 00D0
ENCODING 208
SWIDTH 720 0
DWIDTH 20 0
BBX 19 20 0 0
BITMAP
3FF800
3FFE00
3FFF00
3C1F80
3C07C0
3C03C0
3C03C0
3C03E0
3C01E0
FFC1E0
FFC1E0
3C01E0
3C03E0
3C03C0
3C07C0
3C0780
3C3F80
3FFF00
3FFC00
3FF000
ENDCHAR
STARTCHAR 00D1
ENCODING 209
SWIDTH 792 0
DWIDTH 22 0
BBX 18 27 2 0
BITMAP
000800
07F800
07F000
0C0000
000000
000000
000000
FC03C0
FE03C0
FE03C0
FF03C0
FF03C0
F783C0
F783C0
F3C3C0
F3C3C0
F1E3C0
F1E3C0
F0E3C0
F0F3C0
F073C0
F07BC0
F03BC0
F03FC0
F03FC0
F01FC0
F01FC0
ENDCHAR
STARTCHAR 00D2
ENCODING 210
SWIDTH 792 0
DWIDTH 22 0
BBX 19 28 2 0
BITMAP
0F0000
070000
038000
018000
00C000
000000
000000
00E000
0FFC00
1FFE00
3FFF00
7C0F80
7807C0
F803C0
F003C0
F003E0
F003E0
F003E0
F003E0
F003E0
F003C0
F003C0
F803C0
7807C0
7C0F80
3FFF00
1FFE00
07FC00
ENDCHAR
STARTCHAR 00D3
ENCODING 211
SWIDTH 792 0
DWIDTH 22 0
BBX 19 28 2 0
BITMAP
003C00
003800
007000
006000
00C000
000000
000000
00E000
0FFC00
1FFE00
3FFF00
7C0F80
7807C0
F803C0
F003C0
F003E0
F003E0
F003E0
F003E0
F003E0
F003C0
F003C0
F803C0
7807C0
7C0F80
3FFF00
1FFE00
07FC00
ENDCHAR
STARTCHAR 00D4
ENCODING 212
SWIDTH 792 0
DWIDTH 22 0
BBX 19 28 2 0
BITMAP
01E000
03F000
03B000
073800
061800
000000
000000
00E000
0FFC00
1FFE00
3FFF00
7C0F80
7807C0
F803C0
F003C0
F003E0
F003E0
F003E0
F003E0
F003E0
F003C0
F003C0
F803C0
7807C0
7C0F80
3FFF00
1FFE00
07FC00
ENDCHAR
STARTCHAR 00D5
ENCODING 213
SWIDTH 792 0
DWIDTH 22 0
BBX 19 27 2 0
BITMAP
000C00
07F800
07F800
040000
000000
000000
00E000
0FFC00
1FFE00
3FFF00
7C0F80
7807C0
F803C0
F003C0
F003E0
F003E0
F003E0
F003E0
F003E0
F003C0
F003C0
F803C0
7807C0
7C0F80
3FFF00
1FFE00
07FC00
ENDCHAR
STARTCHAR 00D6
ENCODING 214
SWIDTH 792 0
DWIDTH 22 0
BBX 19 27 2 0
BITMAP
071C00
071C00
071C00
000000
000000
000000
00E000
0FFC00
1FFE00
3FFF00
7C0F80
7807C0
F803C0
F003C0
F003E0
F003E0
F003E0
F003E0
F003E0
F003C0
F003C0
F803C0
7807C0
7C0F80
3FFF00
1FFE00
07FC00
ENDCHAR
STARTCHAR 00D7
ENCODING 215
SWIDTH 1008 0
DWIDTH 28 0
BBX 14 15 7 1
BITMAP
8004
C00C
6018
3030
1860
0CC0
0780
0300
0780
0CC0
1860
3030
6018
C00C
8004
ENDCHAR
STARTCHAR 00D8
ENCODING 216
SWIDTH 792 0
DWIDTH 22 0
BBX 20 22 1 0
BITMAP
007030
07FE70
0FFFE0
1FFFC0
3E07C0
3C03E0
7C07E0
780FE0
781DF0
7839F0
7871F0
78E1F0
79C1F0
7B81E0
7F01E0
7E01E0
3E03E0
3E07C0
3FFF80
7FFF00
E3FE00
C00000
ENDCHAR
STARTCHAR 00D9
ENCODING 217
SWIDTH 756 0
DWIDTH 21 0
BBX 17 28 2 0
BITMAP
0E0000
070000
030000
038000
018000
000000
000000
000000
F00780
F00780
F00780
F00780
F00780
F00780
F00780
F00780
F00780
F00780
F00780
F00780
F00780
F00780
F80780
780F80
7C1F00
3FFE00
1FFC00
0FF800
ENDCHAR
STARTCHAR 00DA
ENCODING 218
SWIDTH 756 0
DWIDTH 21 0
BBX 17 28 2 0
BITMAP
003800
007000
007000
00E000
00C000
000000
000000
000000
F00780
F00780
F00780
F00780
F00780
F00780
F00780
F00780
F00780
F00780
F00780
F00780
F00780
F00780
F80780
780F80
7C1F00
3FFE00
1FFC00
0FF800
ENDCHAR
STARTCHAR 00DB
ENCODING 219
SWIDTH 756 0
DWIDTH 21 0
BBX 17 28 2 0
BITMAP
03E000
03E000
077000
063000
0C1800
000000
000000
000000
F00780
F00780
F00780
F00780
F00780
F00780
F00780
F00780
F00780
F00780
F00780
F00780
F00780
F00780
F80780
780F80
7C1F00
3FFE00
1FFC00
0FF800
ENDCHAR
STARTCHAR 00DC
ENCODING 220
SWIDTH 756 0
DWIDTH 21 0
BBX 17 27 2 0
BITMAP
0E3800
0E3800
0E3800
000000
000000
000000
000000
F00780
F00780
F00780
F00780
F00780
F00780
F00780
F00780
F00780
F00780
F00780
F00780
F00780
F00780
F00F80
F80F00
7C1F00
3FFE00
3FFC00
0FF800
ENDCHAR
STARTCHAR 00DD
ENCODING 221
SWIDTH 648 0
DWIDTH 18 0
BBX 17 28 1 0
BITMAP
007000
007000
00E000
01C000
018000
000000
000000
000000
F00F80
F80F00
781F00
7C1E00
3C3E00
3E3C00
1E7800
1F7800
0FF000
07F000
07E000
03E000
03C000
03C000
03C000
03C000
03C000
03C000
03C000
03C000
ENDCHAR
STARTCHAR 00DE
ENCODING 222
SWIDTH 648 0
DWIDTH 18 0
BBX 14 20 2 0
BITMAP
F000
F000
F000
FF80
FFF0
FFF8
F0FC
F03C
F03C
F03C
F03C
F07C
FFFC
FFF8
FFE0
F000
F000
F000
F000
F000
ENDCHAR
STARTCHAR 00DF
ENCODING 223
SWIDTH 576 0
DWIDTH 16 0
BBX 15 21 1 0
BITMAP
0300
3FE0
7FF0
F8F0
F078
F078
F0F0
F1F0
F3C0
F380
F780
F7C0
F3E0
F1F8
F07C
F03C
F01E
F71E
F73C
F7FC
F3F8
ENDCHAR
STARTCHAR 00E0
ENCODING 224
SWIDTH 540 0
DWIDTH 15 0
BBX 13 22 1 0
BITMAP
3C00
1C00
0E00
0600
0700
0000
0000
0000
1FE0
3FF0
7870
7878
0078
1FF8
3FF8
7878
F078
F078
F078
F8F8
7FF8
3F38
ENDCHAR
STARTCHAR 00E1
ENCODING 225
SWIDTH 540 0
DWIDTH 15 0
BBX 13 22 1 0
BITMAP
00E0
01C0
01C0
0380
0300
0000
0000
0000
1FE0
3FF0
7870
7878
0078
1FF8
3FF8
7878
F078
F078
F078
F8F8
7FF8
3F38
ENDCHAR
STARTCHAR 00E2
ENCODING 226
SWIDTH 540 0
DWIDTH 15 0
BBX 13 22 1 0
BITMAP
0780
0F80
0DC0
1CC0
1860
0000
0000
0000
1FE0
3FF0
7870
7878
0078
1FF8
3FF8
7878
F078
F078
F078
F8F8
7FF8
3F38
ENDCHAR
STARTCHAR 00E3
ENCODING 227
SWIDTH 540 0
DWIDTH 15 0
BBX 13 21 1 0
BITMAP
0020
1FE0
1FC0
3000
0000
0000
0000
1FE0
3FF0
7870
7878
0078
1FF8
3FF8
7878
F078
F078
F078
F8F8
7FF8
3F38
ENDCHAR
STARTCHAR 00E4
ENCODING 228
SWIDTH 540 0
DWIDTH 15 0
BBX 13 21 1 0
BITMAP
38E0
38E0
38E0
0000
0000
0000
0000
1FE0
3FF0
7870
7878
0078
1FF8
3FF8
7878
F078
F078
F078
F8F8
7FF8
3F38
ENDCHAR
STARTCHAR 00E5
ENCODING 229
SWIDTH 540 0
DWIDTH 15 0
BBX 13 23 1 1
BITMAP
0F80
0CC0
18C0
18C0
0FC0
0780
0000
0000
0000
1FE0
3FF0
7870
7878
0078
1FF8
3FF8
7878
F078
F078
F078
F8F8
7FF8
3F38
ENDCHAR
STARTCHAR 00E6
ENCODING 230
SWIDTH 900 0
DWIDTH 25 0
BBX 23 14 1 0
BITMAP
1FC7F0
3FEFF8
787C3C
787C3C
00781C
0FFFFE
3FFFFE
7C7800
707800
F07C00
F07C3C
F8FE3C
7FCFF8
3F87F0
ENDCHAR
STARTCHAR 00E7
ENCODING 231
SWIDTH 540 0
DWIDTH 15 0
BBX 12 21 1 -7
BITMAP
1FC0
3FE0
78F0
70F0
70F0
F000
F000
F000
F000
F0F0
70F0
78F0
3FE0
1FC0
0600
0600
07C0
00C0
00C0
1FC0
1F00
ENDCHAR
STARTCHAR 00E8
ENCODING 232
SWIDTH 540 0
DWIDTH 15 0
BBX 13 22 1 0
BITMAP
3C00
1C00
0E00
0600
0300
0000
0000
0000
1FC0
3FF0
78F0
7078
7078
FFF8
FFF8
FFF8
F000
7000
7878
78F0
3FF0
1FE0
ENDCHAR
STARTCHAR 00E9
ENCODING 233
SWIDTH 540 0
DWIDTH 15 0
BBX 13 22 1 0
BITMAP
00E0
01C0
01C0
0380
0300
0000
0000
0000
1FC0
3FF0
78F0
7078
7078
FFF8
FFF8
FFF8
F000
7000
7878
78F0
3FF0
1FE0
ENDCHAR
STARTCHAR 00EA
ENCODING 234
SWIDTH 540 0
DWIDTH 15 0
BBX 13 22 1 0
BITMAP
0780
0F80
0DC0
1CC0
1860
0000
0000
0000
1FC0
3FF0
78F0
7078
7078
FFF8
FFF8
FFF8
F000
7000
7878
78F0
3FF0
1FE0
ENDCHAR
STARTCHAR 00EB
ENCODING 235
SWIDTH 576 0
DWIDTH 16 0
BBX 13 21 1 0
BITMAP
38E0
38E0
38E0
0000
0000
0000
0000
1FC0
3FF0
78F0
7078
7078
FFF8
FFF8
FFF8
F000
7000
7878
78F0
3FF0
1FE0
ENDCHAR
STARTCHAR 00EC
ENCODING 236
SWIDTH 252 0
DWIDTH 7 0
BBX 6 22 0 0
BITMAP
E0
F0
70
38
18
00
00
00
3C
3C
3C
3C
3C
3C
3C
3C
3C
3C
3C
3C
3C
3C
ENDCHAR
STARTCHAR 00ED
ENCODING 237
SWIDTH 216 0
DWIDTH 6 0
BBX 5 22 2 0
BITMAP
38
78
70
E0
C0
00
00
00
F0
F0
F0
F0
F0
F0
F0
F0
F0
F0
F0
F0
F0
F0
ENDCHAR
STARTCHAR 00EE
ENCODING 238
SWIDTH 252 0
DWIDTH 7 0
BBX 8 22 0 0
BITMAP
3C
7C
6E
E6
C3
00
00
00
3C
3C
3C
3C
3C
3C
3C
3C
3C
3C
3C
3C
3C
3C
ENDCHAR
STARTCHAR 00EF
ENCODING 239
SWIDTH 252 0
DWIDTH 7 0
BBX 9 21 -1 0
BITMAP
E380
E380
E380
0000
0000
0000
0000
1E00
1E00
1E00
1E00
1E00
1E00
1E00
1E00
1E00
1E00
1E00
1E00
1E00
1E00
ENDCHAR
STARTCHAR 00F0
ENCODING 240
SWIDTH 612 0
DWIDTH 17 0
BBX 15 21 1 0
BITMAP
0008
0F3C
03F0
03E0
1EE0
38F0
0078
0FF8
3FFC
7C7C
783C
701C
F01E
F01E
F01E
F01E
701C
783C
7C7C
3FF8
0FF0
ENDCHAR
STARTCHAR 00F1
ENCODING 241
SWIDTH 612 0
DWIDTH 17 0
BBX 13 21 2 0
BITMAP
0060
1FE0
3FC0
2000
0000
0000
0000
F7E0
FFF0
F8F8
F078
F078
F078
F078
F078
F078
F078
F078
F078
F078
F078
ENDCHAR
STARTCHAR 00F2
ENCODING 242
SWIDTH 612 0
DWIDTH 17 0
BBX 15 22 1 0
BITMAP
1C00
0E00
0600
0700
0300
0000
0000
0000
0FE0
3FF0
3C78
783C
701C
F01E
F01E
F01E
F01E
701C
783C
3C78
3FF0
0FE0
ENDCHAR
STARTCHAR 00F3
ENCODING 243
SWIDTH 612 0
DWIDTH 17 0
BBX 15 22 1 0
BITMAP
00F0
00E0
01C0
0180
0380
0000
0000
0000
0FE0
3FF0
3C78
783C
701C
F01E
F01E
F01E
F01E
701C
783C
3C78
3FF0
0FE0
ENDCHAR
STARTCHAR 00F4
ENCODING 244
SWIDTH 612 0
DWIDTH 17 0
BBX 15 22 1 0
BITMAP
07C0
07C0
0EE0
0C60
1C70
0000
0000
0000
0FE0
3FF0
3C78
783C
701C
F01E
F01E
F01E
F01E
701C
783C
3C78
3FF0
0FE0
ENDCHAR
STARTCHAR 00F5
ENCODING 245
SWIDTH 612 0
DWIDTH 17 0
BBX 15 21 1 0
BITMAP
0030
0FF0
1FE0
1800
0000
0000
0000
0FE0
3FF0
3C78
783C
701C
F01E
F01E
F01E
F01E
701C
783C
3C78
3FF0
0FE0
ENDCHAR
STARTCHAR 00F6
ENCODING 246
SWIDTH 612 0
DWIDTH 17 0
BBX 15 21 1 0
BITMAP
1C70
1C70
1C70
0000
0000
0000
0000
0FE0
3FF0
3C78
783C
701C
F01E
F01E
F01E
F01E
701C
783C
3C78
3FF0
0FE0
ENDCHAR
STARTCHAR 00F7
ENCODING 247
SWIDTH 1008 0
DWIDTH 28 0
BBX 16 13 6 2
BITMAP
0180
03C0
03C0
0180
0000
0000
FFFF
0000
0000
0000
03C0
03C0
0180
ENDCHAR
STARTCHAR 00F8
ENCODING 248
SWIDTH 612 0
DWIDTH 17 0
BBX 15 18 1 -1
BITMAP
000C
001C
0FF8
3FF0
3C78
78FC
70DC
F19E
F39E
F71E
F61E
7C1C
7C3C
3C78
3FF0
6FE0
E000
C000
ENDCHAR
STARTCHAR 00F9
ENCODING 249
SWIDTH 612 0
DWIDTH 17 0
BBX 13 22 2 0
BITMAP
3800
1C00
1C00
0E00
0600
0000
0000
0000
F078
F078
F078
F078
F078
F078
F078
F078
F078
F078
F078
F0F8
7FF8
7F78
ENDCHAR
STARTCHAR 00FA
ENCODING 250
SWIDTH 612 0
DWIDTH 17 0
BBX 13 22 2 0
BITMAP
01E0
01C0
0380
0300
0600
0000
0000
0000
F078
F078
F078
F078
F078
F078
F078
F078
F078
F078
F078
F0F8
7FF8
7F78
ENDCHAR
STARTCHAR 00FB
ENCODING 251
SWIDTH 612 0
DWIDTH 17 0
BBX 13 22 2 0
BITMAP
0F00
0F80
1D80
19C0
30C0
0000
0000
0000
F078
F078
F078
F078
F078
F078
F078
F078
F078
F078
F078
F0F8
7FF8
7F78
ENDCHAR
STARTCHAR 00FC
ENCODING 252
SWIDTH 612 0
DWIDTH 17 0
BBX 13 21 2 0
BITMAP
38E0
38E0
38E0
0000
0000
0000
0000
F078
F078
F078
F078
F078
F078
F078
F078
F078
F078
F078
F0F8
7FF8
7F78
ENDCHAR
STARTCHAR 00FD
ENCODING 253
SWIDTH 540 0
DWIDTH 15 0
BBX 15 28 0 -6
BITMAP
0078
0070
00E0
00C0
01C0
0000
0000
0000
781E
781E
3C3C
3C3C
3C3C
1E78
1E78
0F78
0FF0
0FF0
07E0
07E0
03E0
03C0
03C0
23C0
7780
FF80
7F00
1C00
ENDCHAR
STARTCHAR 00FE
ENCODING 254
SWIDTH 648 0
DWIDTH 18 0
BBX 14 26 2 -6
BITMAP
F000
F000
F000
F000
F000
F000
F7E0
FFF0
FCF8
F878
F03C
F03C
F03C
F03C
F03C
F03C
F078
F8F8
FFF0
FFE0
F000
F000
F000
F000
F000
F000
ENDCHAR
STARTCHAR 00FF
ENCODING 255
SWIDTH 540 0
DWIDTH 15 0
BBX 15 27 0 -6
BITMAP
1C70
1C70
1C70
0000
0000
0000
0000
F81E
783C
783C
3C3C
3C78
3E78
1E78
1EF0
0FF0
0FF0
0FE0
07E0
07C0
03C0
03C0
0780
0780
0780
0F00
0F00
ENDCHAR
STARTCHAR 0131
ENCODING 305
SWIDTH 252 0
DWIDTH 7 0
BBX 4 14 2 0
BITMAP
F0
F0
F0
F0
F0
F0
F0
F0
F0
F0
F0
F0
F0
F0
ENDCHAR
STARTCHAR 0141
ENCODING 321
SWIDTH 648 0
DWIDTH 18 0
BBX 16 20 1 0
BITMAP
3C00
3C00
3C40
3CC0
3DC0
3FC0
3F80
3F00
3E00
3C00
7C00
FC00
FC00
FC00
BC00
3C00
3C00
3FFF
3FFF
3FFF
ENDCHAR
STARTCHAR 0142
ENCODING 322
SWIDTH 360 0
DWIDTH 10 0
BBX 8 20 1 0
BITMAP
3C
3C
3C
3C
3C
3D
3F
3F
3E
7C
FC
FC
FC
BC
3C
3C
3C
3C
3C
3C
ENDCHAR
STARTCHAR 0152
ENCODING 338
SWIDTH 1044 0
DWIDTH 29 0
BBX 25 21 2 0
BITMAP
00C00000
0FFFFF80
1FFFFF80
3FFFFF80
7C0F0000
780F0000
F80F0000
F00F0000
F00F0000
F00FFF00
F00FFF00
F00FFF00
F00F0000
F00F0000
F00F0000
F80F0000
780F0000
7C0F0000
3FFFFF80
1FFFFF80
07FFFF80
ENDCHAR
STARTCHAR 0153
ENCODING 339
SWIDTH 900 0
DWIDTH 25 0
BBX 23 14 1 0
BITMAP
0FE7F0
3FFFFC
3C7E3C
783C1E
703C1E
F03FFE
F01FFE
F01FFE
F03C00
703C00
783C1E
3C7E3E
3FFFFC
0FE7F8
ENDCHAR
STARTCHAR 0160
ENCODING 352
SWIDTH 684 0
DWIDTH 19 0
BBX 16 28 2 0
BITMAP
1830
0C60
0EE0
07C0
07C0
0000
0000
0180
1FF0
3FFC
7FFC
783E
F01E
F000
F800
FC00
7FC0
3FF8
0FFC
01FE
003E
001F
F00F
F01E
F83E
7FFC
3FF8
1FF0
ENDCHAR
STARTCHAR 0161
ENCODING 353
SWIDTH 540 0
DWIDTH 15 0
BBX 12 22 1 0
BITMAP
30E0
38C0
1DC0
1F80
0F80
0000
0000
0000
1FC0
7FE0
78F0
70F0
7800
7F00
3FE0
0FF0
01F0
00F0
F070
78F0
7FE0
3FC0
ENDCHAR
STARTCHAR 0178
ENCODING 376
SWIDTH 648 0
DWIDTH 18 0
BBX 17 27 1 0
BITMAP
0E3800
0E3800
0E3800
000000
000000
000000
000000
F00F80
F80F00
781F00
7C1E00
3C3E00
3E3C00
1E7800
1F7800
0FF000
07F000
07E000
03E000
03C000
03C000
03C000
03C000
03C000
03C000
03C000
03C000
ENDCHAR
STARTCHAR 017D
ENCODING 381
SWIDTH 648 0
DWIDTH 18 0
BBX 15 28 1 0
BITMAP
0C30
0E70
06E0
07E0
03C0
0000
0000
0000
7FFE
7FFE
7FFE
003E
007C
007C
00F8
01F0
03E0
03E0
07C0
0F80
1F00
1F00
3E00
7C00
F800
FFFE
FFFE
FFFE
ENDCHAR
STARTCHAR 017E
ENCODING 382
SWIDTH 504 0
DWIDTH 14 0
BBX 12 22 1 0
BITMAP
30C0
38C0
1D80
1F80
0F00
0000
0000
0000
FFF0
FFF0
00F0
01E0
03C0
0780
0F80
1F00
3E00
3C00
7800
F000
FFF0
FFF0
ENDCHAR
STARTCHAR 0192
ENCODING 402
SWIDTH 540 0
DWIDTH 15 0
BBX 17 26 -2 -5
BITMAP
001F80
001F80
003C00
003800
007800
007000
03FE00
03FE00
07FE00
00E000
00E000
01E000
01C000
01C000
03C000
03C000
038000
038000
078000
070000
070000
0F0000
0E0000
FE0000
FC0000
F00000
ENDCHAR
STARTCHAR 02C6
ENCODING 710
SWIDTH 324 0
DWIDTH 9 0
BBX 9 5 0 17
BITMAP
3E00
3E00
7700
6300
E380
ENDCHAR
STARTCHAR 02C7
ENCODING 711
SWIDTH 324 0
DWIDTH 9 0
BBX 9 5 0 17
BITMAP
C180
6300
7700
3E00
3E00
ENDCHAR
STARTCHAR 02D8
ENCODING 728
SWIDTH 324 0
DWIDTH 9 0
BBX 9 4 0 17
BITMAP
C180
E380
7F00
3E00
ENDCHAR
STARTCHAR 02D9
ENCODING 729
SWIDTH 108 0
DWIDTH 3 0
BBX 3 3 0 17
BITMAP
E0
E0
E0
ENDCHAR
STARTCHAR 02DA
ENCODING 730
SWIDTH 252 0
DWIDTH 7 0
BBX 7 6 0 18
BITMAP
7C
CC
C6
C6
FC
78
ENDCHAR
STARTCHAR 02DB
ENCODING 731
SWIDTH 216 0
DWIDTH 6 0
BBX 5 6 0 -7
BITMAP
20
60
C0
C0
F8
F8
ENDCHAR
STARTCHAR 02DC
ENCODING 732
SWIDTH 324 0
DWIDTH 9 0
BBX 9 4 0 17
BITMAP
0180
7F80
FF00
C000
ENDCHAR
STARTCHAR 02DD
ENCODING 733
SWIDTH 324 0
DWIDTH 9 0
BBX 9 5 0 17
BITMAP
7380
7700
6600
C600
C400
ENDCHAR
STARTCHAR 0394
ENCODING 916
SWIDTH 648 0
DWIDTH 18 0
BBX 18 20 0 0
BITMAP
004000
004000
00E000
00E000
01E000
017000
037000
027800
023800
043800
041C00
0C1C00
080E00
180E00
100F00
300700
200700
600380
7FFF80
FFFFC0
ENDCHAR
STARTCHAR 03A9
ENCODING 937
SWIDTH 792 0
DWIDTH 22 0
BBX 20 20 1 0
BITMAP
03FC00
0E0700
1C0180
3801C0
7800E0
7000E0
7000F0
7000F0
7000F0
7000F0
7000F0
7000E0
3800E0
3801C0
1C0380
070E00
810C00
FF0FF0
FF0FF0
FF8FF0
ENDCHAR
STARTCHAR 03BC
ENCODING 956
SWIDTH 648 0
DWIDTH 18 0
BBX 16 20 2 -6
BITMAP
F078
F078
F078
F078
F078
F078
F078
F078
F078
F078
F078
F8F8
FFBF
FF3F
F000
F000
F000
F000
F000
F000
ENDCHAR
STARTCHAR 03C0
ENCODING 960
SWIDTH 576 0
DWIDTH 16 0
BBX 15 14 0 -1
BITMAP
3FFE
7FFE
4430
8420
0C20
0C60
0C60
0C60
0C60
0C60
1C60
3872
383E
383C
ENDCHAR
STARTCHAR 2013
ENCODING 8211
SWIDTH 504 0
DWIDTH 14 0
BBX 14 3 0 6
BITMAP
FFFC
FFFC
FFFC
ENDCHAR
STARTCHAR 2014
ENCODING 8212
SWIDTH 1008 0
DWIDTH 28 0
BBX 28 3 0 6
BITMAP
FFFFFFF0
FFFFFFF0
FFFFFFF0
ENDCHAR
STARTCHAR 2018
ENCODING 8216
SWIDTH 288 0
DWIDTH 8 0
BBX 6 7 1 13
BITMAP
1C
38
38
78
70
F0
F0
ENDCHAR
STARTCHAR 2019
ENCODING 8217
SWIDTH 288 0
DWIDTH 8 0
BBX 6 7 1 13
BITMAP
3C
38
78
70
70
E0
E0
ENDCHAR
STARTCHAR 201A
ENCODING 8218
SWIDTH 288 0
DWIDTH 8 0
BBX 5 7 1 -4
BITMAP
38
78
78
70
70
E0
E0
ENDCHAR
STARTCHAR 201C
ENCODING 8220
SWIDTH 468 0
DWIDTH 13 0
BBX 11 7 1 13
BITMAP
1CE0
38E0
38E0
79C0
71C0
F3C0
F380
ENDCHAR
STARTCHAR 201D
ENCODING 8221
SWIDTH 468 0
DWIDTH 13 0
BBX 11 7 1 13
BITMAP
3DE0
39E0
79C0
71C0
7380
E380
E300
ENDCHAR
STARTCHAR 201E
ENCODING 8222
SWIDTH 468 0
DWIDTH 13 0
BBX 11 7 1 -4
BITMAP
39E0
79E0
79C0
73C0
7380
E380
E300
ENDCHAR
STARTCHAR 2020
ENCODING 8224
SWIDTH 540 0
DWIDTH 15 0
BBX 13 24 1 -4
BITMAP
0700
0700
0700
0700
0700
0700
FFF8
FFF8
FFF8
0700
0700
0700
0700
0700
0700
0700
0700
0700
0700
0700
0700
0700
0700
0700
ENDCHAR
STARTCHAR 2021
ENCODING 8225
SWIDTH 540 0
DWIDTH 15 0
BBX 13 24 1 -4
BITMAP
0700
0700
0700
0700
0700
0700
FFF8
FFF8
FFF8
0700
0700
0700
0700
0700
0700
FFF8
FFF8
FFF8
0700
0700
0700
0700
0700
0700
ENDCHAR
STARTCHAR 2022
ENCODING 8226
SWIDTH 288 0
DWIDTH 8 0
BBX 6 7 1 6
BITMAP
30
7C
FC
FC
FC
7C
30
ENDCHAR
STARTCHAR 2026
ENCODING 8230
SWIDTH 1008 0
DWIDTH 28 0
BBX 26 4 1 0
BITMAP
F01E03C0
F01E03C0
F01E03C0
F01E03C0
ENDCHAR
STARTCHAR 2030
ENCODING 8240
SWIDTH 1440 0
DWIDTH 40 0
BBX 38 21 1 0
BITMAP
0000700000
3F80700000
7FC0E00000
61C0C00000
E0E1C00000
E0E1800000
E0E3800000
E0E7000000
E0E7000000
71CE000000
7F8C7E03F0
1F1CFF07F8
0019C38E38
0039C39C1C
0071C1DC1C
007381DC1C
00E181DC1C
00C1C39C1C
01C1C38E3C
0180FF07F8
03807E03F0
ENDCHAR
STARTCHAR 2039
ENCODING 8249
SWIDTH 360 0
DWIDTH 10 0
BBX 7 11 2 2
BITMAP
1E
3C
3C
78
78
F0
F0
78
78
3C
3C
ENDCHAR
STARTCHAR 203A
ENCODING 8250
SWIDTH 360 0
DWIDTH 10 0
BBX 6 11 2 2
BITMAP
E0
F0
78
78
3C
3C
3C
3C
78
78
F0
ENDCHAR
STARTCHAR 2044
ENCODING 8260
SWIDTH 576 0
DWIDTH 16 0
BBX 14 21 1 0
BITMAP
000C
001C
0038
0038
0070
0060
00E0
00C0
01C0
0380
0380
0700
0700
0E00
0C00
1C00
3800
3800
7000
7000
E000
ENDCHAR
STARTCHAR 2122
ENCODING 8482
SWIDTH 648 0
DWIDTH 18 0
BBX 16 8 1 12
BITMAP
FDC7
11C7
11E7
11AF
11AB
11BB
11BB
1193
ENDCHAR
STARTCHAR 2202
ENCODING 8706
SWIDTH 504 0
DWIDTH 14 0
BBX 13 23 1 -1
BITMAP
1E00
7F80
00C0
0060
0060
0030
0030
0030
0030
0030
0E38
3DB0
7070
6030
E030
E070
C070
C060
C0E0
C0C0
61C0
3380
0400
ENDCHAR
STARTCHAR 220F
ENCODING 8719
SWIDTH 864 0
DWIDTH 24 0
BBX 22 25 1 -3
BITMAP
FFFFFC
3FFFF0
3C00F0
1C00F0
1C00F0
1C00F0
1C00F0
1C00F0
1C00F0
1C00F0
1C00F0
1C00F0
1C00F0
1C00F0
1C00F0
1C00F0
1C00F0
1C00F0
1C00F0
1C00F0
1C00F0
1C00F0
1C00F0
3C00F0
FF87FC
ENDCHAR
STARTCHAR 2211
ENCODING 8721
SWIDTH 756 0
DWIDTH 21 0
BBX 19 25 1 -3
BITMAP
FFFF80
7FFF80
780180
3C0080
1E0000
0E0000
0F0000
078000
03C000
01C000
01E000
00F000
007000
006000
00C000
008000
010000
030000
060020
0C0020
180060
3000C0
7FFFC0
7FFFC0
FFFFC0
ENDCHAR
STARTCHAR 2212
ENCODING 8722
SWIDTH 1008 0
DWIDTH 28 0
BBX 16 1 6 8
BITMAP
FFFF
ENDCHAR
STARTCHAR 221A
ENCODING 8730
SWIDTH 576 0
DWIDTH 16 0
BBX 15 20 1 0
BITMAP
0006
0004
0008
0008
0008
0018
0010
6010
B010
3020
1820
1820
0C20
0440
0640
0240
03C0
0180
0180
0080
ENDCHAR
STARTCHAR 221E
ENCODING 8734
SWIDTH 1008 0
DWIDTH 28 0
BBX 18 8 5 4
BITMAP
7C0F80
C738C0
81E0C0
80C040
81E040
C330C0
7E1F80
100200
ENDCHAR
STARTCHAR 222B
ENCODING 8747
SWIDTH 468 0
DWIDTH 13 0
BBX 11 27 1 -6
BITMAP
00E0
03E0
0260
0600
0600
0600
0600
0600
0600
0600
0600
0600
0600
0600
0E00
0E00
0E00
0E00
0E00
0E00
0C00
0C00
0C00
0C00
E800
F800
4000
ENDCHAR
STARTCHAR 2248
ENCODING 8776
SWIDTH 1008 0
DWIDTH 28 0
BBX 16 9 6 4
BITMAP
0800
7F81
C3FF
007C
0000
3C00
FF83
C1FF
0038
ENDCHAR
STARTCHAR 2260
ENCODING 8800
SWIDTH 1008 0
DWIDTH 28 0
BBX 16 13 6 2
BITMAP
0004
000C
0018
FFFF
FFFF
00C0
0180
0300
FFFF
FFFF
1800
3000
2000
ENDCHAR
STARTCHAR 2264
ENCODING 8804
SWIDTH 1008 0
DWIDTH 28 0
BBX 16 15 6 1
BITMAP
0007
003E
03F0
1F00
F800
C000
F800
1F00
03E0
007E
0007
0000
0000
FFFF
FFFF
ENDCHAR
STARTCHAR 2265
ENCODING 8805
SWIDTH 1008 0
DWIDTH 28 0
BBX 16 15 6 1
BITMAP
E000
7C00
0FC0
00F8
001F
0001
001F
00F8
07C0
7E00
E000
0000
0000
FFFF
FFFF
ENDCHAR
STARTCHAR 25CA
ENCODING 9674
SWIDTH 540 0
DWIDTH 15 0
BBX 13 22 1 0
BITMAP
0300
0700
0D80
0D80
18C0
18C0
3060
3060
6030
6010
C018
C018
4010
6030
2020
3060
1040
18C0
0D80
0D80
0700
0700
ENDCHAR
STARTCHAR FB01
ENCODING 64257
SWIDTH 648 0
DWIDTH 18 0
BBX 16 21 0 0
BITMAP
0300
0FCF
1FCF
1E0F
1C00
1C00
1C00
FF8F
FF8F
1C0F
1C0F
1C0F
1C0F
1C0F
1C0F
1C0F
1C0F
1C0F
1C0F
1C0F
1C0F
ENDCHAR
STARTCHAR FB02
ENCODING 64258
SWIDTH 648 0
DWIDTH 18 0
BBX 16 21 0 0
BITMAP
0300
0FCF
1FCF
1E0F
1C0F
1C0F
1C0F
FF8F
FF8F
1C0F
1C0F
1C0F
1C0F
1C0F
1C0F
1C0F
1C0F
1C0F
1C0F
1C0F
1C0F
ENDCHAR
ENDFONT
